<svg width="20" height="19" viewBox="0 0 20 19" fill="none" xmlns="http://www.w3.org/2000/svg">
<path id="Vector" d="M14.36 10.8698C14.44 10.272 14.5 9.67411 14.5 9.05816C14.5 8.4422 14.44 7.84436 14.36 7.24653H17.74C17.9 7.82625 18 8.43315 18 9.05816C18 9.68317 17.9 10.2901 17.74 10.8698M12.59 15.9061C13.19 14.9007 13.65 13.8137 13.97 12.6814H16.92C15.9512 14.1926 14.4141 15.3373 12.59 15.9061ZM12.34 10.8698H7.66C7.56 10.272 7.5 9.67411 7.5 9.05816C7.5 8.4422 7.56 7.83531 7.66 7.24653H12.34C12.43 7.83531 12.5 8.4422 12.5 9.05816C12.5 9.67411 12.43 10.272 12.34 10.8698ZM10 16.2684C9.17 15.1815 8.5 13.9767 8.09 12.6814H11.91C11.5 13.9767 10.83 15.1815 10 16.2684ZM6 5.43489H3.08C4.03886 3.91966 5.5748 2.77314 7.4 2.21019C6.8 3.21565 6.35 4.30262 6 5.43489ZM3.08 12.6814H6C6.35 13.8137 6.8 14.9007 7.4 15.9061C5.57862 15.337 4.04485 14.1921 3.08 12.6814ZM2.26 10.8698C2.1 10.2901 2 9.68317 2 9.05816C2 8.43315 2.1 7.82625 2.26 7.24653H5.64C5.56 7.84436 5.5 8.4422 5.5 9.05816C5.5 9.67411 5.56 10.272 5.64 10.8698M10 1.83881C10.83 2.92579 11.5 4.13958 11.91 5.43489H8.09C8.5 4.13958 9.17 2.92579 10 1.83881ZM16.92 5.43489H13.97C13.657 4.313 13.1936 3.23004 12.59 2.21019C14.43 2.78085 15.96 3.93124 16.92 5.43489ZM10 0C4.47 0 0 4.07617 0 9.05816C0 11.4605 1.05357 13.7645 2.92893 15.4632C3.85752 16.3044 4.95991 16.9716 6.17317 17.4268C7.38642 17.882 8.68678 18.1163 10 18.1163C12.6522 18.1163 15.1957 17.162 17.0711 15.4632C18.9464 13.7645 20 11.4605 20 9.05816C20 7.86862 19.7413 6.69074 19.2388 5.59175C18.7362 4.49276 17.9997 3.4942 17.0711 2.65307C16.1425 1.81195 15.0401 1.14473 13.8268 0.689511C12.6136 0.234296 11.3132 0 10 0Z" fill="#3C3E3E"/>
</svg>
